<svg xmlns="http://www.w3.org/2000/svg" viewBox="0 0 64 64" fill="none">
  <rect width="64" height="64" rx="16" fill="#0C0C0C"/>
  <path d="M16 32C25.941 32 34 40.059 34 50H24C24 45.582 20.418 42 16 42Z" fill="url(#g1)"/>
  <path d="M48 42C43.582 42 40 45.582 40 50H30C30 40.059 38.059 32 48 32Z" fill="url(#g2)"/>
  <path d="M32 14C32 23.941 23.941 32 14 32V22C18.418 22 22 18.418 22 14Z" fill="url(#g3)"/>
  <path d="M42 14C42 18.418 45.582 22 50 22V32C40.059 32 32 23.941 32 14Z" fill="url(#g4)"/>
  <defs>
    <linearGradient id="g1" x1="16" y1="32" x2="34" y2="50" gradientUnits="userSpaceOnUse">
      <stop stop-color="#00D2FF"/>
      <stop offset="1" stop-color="#A4F4FD"/>
    </linearGradient>
    <linearGradient id="g2" x1="30" y1="32" x2="48" y2="50" gradientUnits="userSpaceOnUse">
      <stop stop-color="#A4F4FD"/>
      <stop offset="1" stop-color="#00D2FF"/>
    </linearGradient>
    <linearGradient id="g3" x1="14" y1="14" x2="32" y2="32" gradientUnits="userSpaceOnUse">
      <stop stop-color="#FFFFFF"/>
      <stop offset="1" stop-color="#7DD3FC"/>
    </linearGradient>
    <linearGradient id="g4" x1="32" y1="14" x2="50" y2="32" gradientUnits="userSpaceOnUse">
      <stop stop-color="#7DD3FC"/>
      <stop offset="1" stop-color="#FFFFFF"/>
    </linearGradient>
  </defs>
</svg>
